<?xml version="1.0" encoding="UTF-8"?><svg id="Ebene_1" xmlns="http://www.w3.org/2000/svg" viewBox="0 0 311.81 188.98"><defs><style>.cls-1{fill:#5c068c;}</style></defs><path class="cls-1" d="m47.26,40.27v44.54c0,.13.1.23.23.23h8.97c.13,0,.23-.1.23-.23V28.58c0-.13-.1-.23-.23-.23h-9.13c-.05,0-.1.02-.14.05l-18.75,14.01c-.1.07-.12.21-.05.32l5.01,7.4c.07.11.23.14.33.06l13.35-10c.08-.06.19,0,.19.09Z"/><path class="cls-1" d="m99.4,62.76l15.65,22.18c.04.06.11.1.19.1h21.23c.19,0,.3-.21.19-.36l-20.38-30.25c-.06-.08-.05-.19,0-.27l19.26-25.44c.12-.15,0-.37-.19-.37h-20.22c-.07,0-.14.03-.18.09l-15.56,20.53c-.07.09-.21.04-.21-.07v-20.32c0-.13-.1-.23-.23-.23h-18.52c-.13,0-.23.1-.23.23v56.23c0,.13.1.23.23.23h18.51c.13,0,.23-.1.23-.23v-21.98c0-.11.15-.16.21-.07Z"/><path class="cls-1" d="m131.91,104.08l-22.58,56.24c-.06.15.05.32.22.32h19.76c.1,0,.19-.06.22-.16l2.76-8.02c.03-.09.12-.16.22-.16h18.1c.1,0,.19.06.22.15l2.92,8.02c.03.09.12.15.22.15h19.95c.16,0,.28-.17.22-.32l-22.52-56.24c-.04-.09-.12-.15-.22-.15h-19.27c-.09,0-.18.06-.22.15Zm5.15,33.5l4.59-13.53c.04-.11.19-.11.22,0l4.51,13.53c.03.08-.03.15-.11.15h-9.1c-.08,0-.14-.08-.11-.15Z"/><path class="cls-1" d="m229.92,53.77l10.22,31.12c.03.1.12.16.22.16h15.94c.1,0,.19-.07.22-.17l9.35-30.91c.04-.13.23-.1.23.04l-.55,30.8c0,.13.1.24.23.24h17.45c.13,0,.23-.1.23-.23V28.58c0-.13-.1-.23-.23-.23h-25.55c-.1,0-.19.07-.22.17l-9.02,29.98c-.03.11-.19.11-.22,0l-9.14-29.98c-.03-.1-.12-.16-.22-.16h-26c-.13,0-.23.1-.23.23v56.24c0,.13.1.23.23.23h17.46c.13,0,.24-.11.23-.24l-.86-31c0-.13.18-.17.23-.04Z"/><path class="cls-1" d="m45.64,129.36l10.22,31.12c.03.1.12.16.22.16h15.94c.1,0,.19-.07.22-.17l9.35-30.91c.04-.13.23-.1.23.04l-.55,30.8c0,.13.1.24.23.24h17.45c.13,0,.23-.1.23-.23v-56.24c0-.13-.1-.23-.23-.23h-25.55c-.1,0-.19.07-.22.17l-9.02,29.98c-.03.11-.19.11-.22,0l-9.14-29.98c-.03-.1-.12-.16-.22-.16h-26c-.13,0-.23.1-.23.23v56.24c0,.13.1.23.23.23h17.46c.13,0,.24-.11.23-.24l-.86-31c0-.13.18-.17.23-.04Z"/><path class="cls-1" d="m248.33,130.93c-7.77,0-14.08-6.32-14.08-14.08s6.32-14.08,14.08-14.08,14.08,6.32,14.08,14.08-6.32,14.08-14.08,14.08Zm0-18.7c-2.54,0-4.62,2.07-4.62,4.62s2.07,4.62,4.62,4.62,4.62-2.07,4.62-4.62-2.07-4.62-4.62-4.62Z"/><path class="cls-1" d="m221.12,128.38c-1.76-1.52-3.86-2.7-6.24-3.5-2.36-.8-4.96-1.2-7.72-1.2-1,0-2.13.05-3.37.16-.91.08-1.73.2-2.46.36-.07.02-.14-.04-.13-.12l.49-10.57c0-.06.05-.11.12-.11h22.32c.13,0,.23-.1.23-.23v-9c0-.13-.1-.23-.23-.23h-31.54c-.12,0-.23.1-.23.22l-1.29,30.9c0,.18.17.3.33.22.53-.26,1.61-.78,2.98-1.23,1.06-.36,2.16-.69,3.25-.97,1.1-.28,2.24-.5,3.39-.65,2.8-.37,5.21-.29,7.61.27,1.39.32,2.66.9,3.77,1.72,1.11.81,2.02,1.9,2.71,3.23.69,1.33,1.04,3.05,1.04,5.1,0,1.6-.26,3.05-.78,4.31-.52,1.26-1.23,2.32-2.11,3.15-.89.84-1.94,1.49-3.12,1.93-1.19.45-2.48.67-3.82.67-2.39,0-4.48-.64-6.21-1.9-1.69-1.23-2.97-2.8-3.83-5.3-.04-.12-.17-.19-.29-.15l-9.05,3.32c-.12.05-.19.19-.14.31,1.52,4.01,4.06,7.2,7.26,9.37,3.25,2.22,7.3,3.34,12.03,3.34,2.81,0,5.51-.46,8-1.36,2.51-.91,4.72-2.23,6.59-3.94,1.87-1.71,3.37-3.84,4.47-6.32,1.09-2.48,1.65-5.33,1.65-8.47,0-2.88-.5-5.46-1.49-7.69-1-2.23-2.4-4.13-4.16-5.66Z"/><path class="cls-1" d="m160.05,51.1c.54-1.5,1.3-2.76,2.26-3.79.96-1.03,2.12-1.83,3.47-2.41,1.35-.58,2.81-.87,4.37-.87s3,.29,4.33.87c1.33.58,2.48,1.38,3.47,2.41.99,1.03,1.75,2.29,2.3,3.79.55,1.5.82,3.15.82,4.94s-.27,3.53-.82,5.05c-.55,1.53-1.31,2.84-2.3,3.95-.99,1.11-2.15,1.96-3.47,2.57-1.33.6-2.77.91-4.33.91s-3.02-.3-4.37-.91c-1.35-.61-2.51-1.46-3.47-2.57-.96-1.11-1.72-2.42-2.26-3.95-.55-1.53-.82-3.21-.82-5.05s.27-3.43.82-4.94m-11.78,26.61c2.73,2.61,5.97,4.62,9.71,6.04,3.74,1.42,7.8,2.13,12.17,2.13s8.42-.71,12.17-2.13c3.74-1.42,6.99-3.44,9.75-6.04,2.76-2.61,4.91-5.75,6.47-9.44,1.56-3.68,2.34-7.76,2.34-12.24s-.78-8.51-2.34-12.12c-1.56-3.61-3.72-6.67-6.47-9.2-2.76-2.53-6.01-4.47-9.75-5.84-3.74-1.37-7.8-2.05-12.17-2.05s-8.42.68-12.17,2.05c-3.75,1.37-6.98,3.32-9.71,5.84-2.73,2.53-4.88,5.59-6.44,9.2-1.56,3.61-2.34,7.65-2.34,12.12s.78,8.56,2.34,12.24c1.56,3.69,3.71,6.83,6.44,9.44"/></svg>