<?xml version="1.0" encoding="UTF-8" standalone="no"?>
<!-- Created with Inkscape (http://www.inkscape.org/) -->

<svg
   version="1.1"
   id="svg173"
   xml:space="preserve"
   width="320"
   height="133.06667"
   viewBox="0 0 320 133.06667"
   sodipodi:docname="RRE-logo.svg"
   inkscape:version="1.1 (c68e22c387, 2021-05-23)"
   xmlns:inkscape="http://www.inkscape.org/namespaces/inkscape"
   xmlns:sodipodi="http://sodipodi.sourceforge.net/DTD/sodipodi-0.dtd"
   xmlns="http://www.w3.org/2000/svg"
   xmlns:svg="http://www.w3.org/2000/svg"><defs
     id="defs177" /><sodipodi:namedview
     id="namedview175"
     pagecolor="#ffffff"
     bordercolor="#666666"
     borderopacity="1.0"
     inkscape:pageshadow="2"
     inkscape:pageopacity="0.0"
     inkscape:pagecheckerboard="0"
     showgrid="false"
     inkscape:zoom="3.46875"
     inkscape:cx="152.64865"
     inkscape:cy="63.279279"
     inkscape:window-width="1920"
     inkscape:window-height="1027"
     inkscape:window-x="1358"
     inkscape:window-y="-8"
     inkscape:window-maximized="1"
     inkscape:current-layer="g181" /><g
     id="g179"
     inkscape:groupmode="layer"
     inkscape:label="ink_ext_XXXXXX"
     transform="matrix(1.3333333,0,0,-1.3333333,0,133.06667)"><g
       id="g181"
       transform="scale(0.1)"><path
         d="M 425.195,597.145 C 425.195,479.73 330.012,384.547 212.598,384.547 95.1836,384.547 0,479.73 0,597.145 c 0,117.414 95.1836,212.597 212.598,212.597 117.414,0 212.597,-95.183 212.597,-212.597"
         style="fill:#3d7693;fill-opacity:1;fill-rule:nonzero;stroke:none"
         id="path183" /><path
         d="m 605.859,604.352 c -35.226,25.894 -78.726,41.195 -125.796,41.195 -20.344,0 -40.032,-2.863 -58.661,-8.199 -14.382,75.14 -68.316,136.23 -139.304,160.777 6.59,111.48 99.086,199.852 212.222,199.852 117.414,0 212.598,-95.184 212.598,-212.598 0,-76.512 -40.414,-143.578 -101.059,-181.027"
         style="fill:#7095ac;fill-opacity:1;fill-rule:nonzero;stroke:none"
         id="path185" /><path
         d="m 368.527,613.973 c -52.644,38.699 -86.804,101.058 -86.804,171.406 0,4.277 0.125,8.527 0.375,12.746 70.988,-24.547 124.922,-85.637 139.304,-160.777 -18.828,-5.391 -36.578,-13.313 -52.875,-23.375"
         style="fill:#3d7693;fill-opacity:1;fill-rule:nonzero;stroke:none"
         id="path187" /><path
         d="m 480.063,220.348 c -103.668,0 -190.008,74.203 -208.801,172.394 84.968,24.336 148.156,100.223 153.558,191.656 21.778,-7.527 45.164,-11.621 69.5,-11.621 40.907,0 79.114,11.555 111.539,31.575 52.641,-38.696 86.801,-101.059 86.801,-171.407 0,-117.414 -95.183,-212.597 -212.597,-212.597"
         style="fill:#a9bcca;fill-opacity:1;fill-rule:nonzero;stroke:none"
         id="path189" /><path
         d="m 271.262,392.742 c -2.492,13.02 -3.797,26.461 -3.797,40.203 0,76.512 40.414,143.582 101.062,181.028 17.008,-12.504 35.953,-22.543 56.293,-29.575 -5.402,-91.433 -68.59,-167.32 -153.558,-191.656"
         style="fill:#3d7693;fill-opacity:1;fill-rule:nonzero;stroke:none"
         id="path191" /><path
         d="m 494.32,572.777 c -24.336,0 -47.722,4.094 -69.5,11.621 0.25,4.215 0.375,8.469 0.375,12.747 0,13.746 -1.304,27.183 -3.793,40.203 18.629,5.336 38.317,8.199 58.661,8.199 47.07,0 90.57,-15.301 125.796,-41.195 -32.425,-20.02 -70.632,-31.575 -111.539,-31.575"
         style="fill:#5b87a1;fill-opacity:1;fill-rule:nonzero;stroke:none"
         id="path193" /><path
         d="m 424.82,584.398 c -20.34,7.032 -39.285,17.071 -56.293,29.575 16.297,10.062 34.047,17.984 52.875,23.375 2.489,-13.02 3.793,-26.457 3.793,-40.203 0,-4.278 -0.125,-8.532 -0.375,-12.747"
         style="fill:#3d7693;fill-opacity:1;fill-rule:nonzero;stroke:none"
         id="path195" /><path
         d="M 283.648,597.66 448.195,498.766 V 699.574 Z M 467.59,393.773 186.246,562.855 l -0.453,68.293 281.344,174.254 61.058,-34.004 V 428.063 l -60.605,-34.29"
         style="fill:#ffffff;fill-opacity:1;fill-rule:nonzero;stroke:none"
         id="path197" /><path
         d="m 181.66,142.09 h -27.523 v -38.36 h 27.523 c 12.383,0 20.813,7.055 20.813,19.09 0,12.047 -8.43,19.27 -20.813,19.27 z M 203.16,36.2969 177.359,87.9023 H 154.137 V 36.2969 H 135.555 V 158.777 h 47.48 c 23.219,0 38.016,-14.964 38.016,-35.785 0,-17.543 -10.664,-28.7225 -24.426,-32.5037 L 224.836,36.2969 H 203.16"
         style="fill:#231f20;fill-opacity:1;fill-rule:nonzero;stroke:none"
         id="path199" /><path
         d="m 290.727,98.9102 c -2.922,6.5388 -8.942,11.0118 -17.2,11.0118 -8.429,0 -14.449,-4.473 -17.371,-11.0118 -1.722,-3.7813 -2.066,-6.5313 -2.242,-11.8633 h 39.223 c -0.34,5.332 -0.688,8.082 -2.41,11.8633 z M 253.914,74.8281 c 0,-15.1328 7.746,-24.4218 22.191,-24.4218 9.805,0 14.969,2.746 21.157,8.9453 l 11.187,-10.4961 c -8.945,-8.9453 -17.375,-13.5938 -32.687,-13.5938 -21.848,0 -39.219,11.5313 -39.219,44.7305 0,28.3788 14.621,44.5508 36.984,44.5508 23.395,0 36.985,-16.859 36.985,-42.3164 v -7.3985 h -56.598"
         style="fill:#231f20;fill-opacity:1;fill-rule:nonzero;stroke:none"
         id="path201" /><path
         d="m 357.133,36.2969 c -16.692,0 -23.91,11.1797 -23.91,24.082 V 158.777 H 350.77 V 61.4141 c 0,-6.711 2.402,-10.1524 9.457,-10.1524 h 7.738 V 36.2969 h -10.832"
         style="fill:#231f20;fill-opacity:1;fill-rule:nonzero;stroke:none"
         id="path203" /><path
         d="m 387.242,36.2969 v 87.2191 h 17.543 V 36.2969 Z m -0.515,104.4181 v 18.574 h 18.578 v -18.574 h -18.578"
         style="fill:#231f20;fill-opacity:1;fill-rule:nonzero;stroke:none"
         id="path205" /><path
         d="m 479.273,74.8281 h -20.128 c -10.665,0 -15.997,-4.4687 -15.997,-12.5586 0,-8.0781 4.989,-12.3867 16.516,-12.3867 6.188,0 11.18,0.6953 15.824,4.9922 2.754,2.5859 3.785,6.7109 3.785,12.8984 z m 0.34,-38.5312 v 7.9101 c -6.363,-6.3593 -12.383,-8.9453 -23.218,-8.9453 -10.84,0 -18.063,2.586 -23.391,7.918 -4.477,4.6406 -6.887,11.3516 -6.887,18.75 0,14.6211 10.153,25.1172 30.278,25.1172 h 22.878 v 6.1875 c 0,11.1796 -5.335,16.3436 -19.093,16.3436 -9.289,0 -14.106,-2.406 -19.098,-8.605 l -11.352,10.84 c 8.086,9.628 16.516,12.73 31.137,12.73 24.082,0 35.949,-10.324 35.949,-29.9297 V 36.2969 h -17.203"
         style="fill:#231f20;fill-opacity:1;fill-rule:nonzero;stroke:none"
         id="path207" /><path
         d="m 559.613,108.895 c -15.996,0 -18.234,-13.4262 -18.234,-28.9028 0,-15.4883 2.238,-29.0742 18.234,-29.0742 15.825,0 18.063,13.5859 18.063,29.0742 0,15.4766 -2.238,28.9028 -18.063,28.9028 z m 25.805,-65.8872 c -4.816,-4.8164 -12.555,-7.7461 -21.332,-7.7461 -9.285,0 -16.512,2.4141 -23.047,10.3242 v -9.289 H 523.836 V 158.777 h 17.543 v -44.039 c 6.367,7.571 13.59,9.805 22.879,9.805 8.773,0 16.344,-2.922 21.16,-7.738 8.43,-8.606 9.805,-22.5355 9.805,-36.8128 0,-14.4492 -1.375,-28.3867 -9.805,-36.9844"
         style="fill:#231f20;fill-opacity:1;fill-rule:nonzero;stroke:none"
         id="path209" /><path
         d="m 618.969,36.2969 v 87.2191 h 17.547 V 36.2969 Z m -0.512,104.4181 v 18.574 h 18.574 v -18.574 h -18.574"
         style="fill:#231f20;fill-opacity:1;fill-rule:nonzero;stroke:none"
         id="path211" /><path
         d="m 687.781,36.2969 c -16.687,0 -23.91,11.1797 -23.91,24.082 v 98.3981 h 17.547 V 61.4141 c 0,-6.711 2.402,-10.1524 9.457,-10.1524 h 7.738 V 36.2969 h -10.832"
         style="fill:#231f20;fill-opacity:1;fill-rule:nonzero;stroke:none"
         id="path213" /><path
         d="M 717.887,36.2969 V 123.516 H 735.43 V 36.2969 Z m -0.516,104.4181 v 18.574 h 18.578 v -18.574 h -18.578"
         style="fill:#231f20;fill-opacity:1;fill-rule:nonzero;stroke:none"
         id="path215" /><path
         d="m 789.281,36.2969 c -16.343,0 -23.914,11.6953 -23.914,24.2539 V 110.09 h -9.972 v 13.426 h 9.972 v 24.933 h 17.551 v -24.933 h 16.855 V 110.09 H 782.918 V 61.4141 c 0,-6.3672 3.094,-10.1524 9.629,-10.1524 h 7.226 V 36.2969 h -10.492"
         style="fill:#231f20;fill-opacity:1;fill-rule:nonzero;stroke:none"
         id="path217" /><path
         d="M 849.488,18.9297 C 847.766,14.1094 845.703,10.668 843.125,8.08984 838.309,3.26953 831.941,1.72266 825.234,1.72266 h -7.05 V 17.5508 h 4.472 c 7.395,0 9.977,2.2344 12.555,9.289 l 4.816,13.586 -30.449,83.0902 h 18.582 l 20.809,-61.4144 20.304,61.4144 H 888.02 L 849.488,18.9297"
         style="fill:#231f20;fill-opacity:1;fill-rule:nonzero;stroke:none"
         id="path219" /><path
         d="m 983.156,144.496 c -7.57,0 -12.043,-5.16 -12.043,-12.043 0,-4.984 3.266,-9.633 9.461,-16.859 l 5.852,3.957 c 4.812,3.269 8.941,7.054 8.941,12.73 0,6.883 -4.988,12.215 -12.211,12.215 z m -7.57,-49.1991 c -8.945,-6.1875 -16.512,-11.8633 -16.512,-23.2227 0,-12.2109 9.457,-20.8125 22.188,-20.8125 8.258,0 15.312,2.2344 23.388,9.461 z m 49.544,-59 -9.98,12.0469 c -5.33,-4.6485 -15.31,-13.0821 -33.888,-13.0821 -25.457,0 -39.563,14.2813 -39.563,36.4688 0,17.0351 12.211,26.6679 24.254,34.5785 -5.504,6.367 -12.73,14.961 -12.73,26.324 0,15.648 11.699,27.172 29.933,27.172 17.374,0 29.074,-11.696 29.074,-27.352 0,-9.633 -5.34,-16.344 -13.082,-21.668 l -8.937,-6.199 25.799,-30.793 c 4.47,6.3711 6.37,13.4258 6.54,24.6054 h 16.85 c -0.51,-15.6601 -3.95,-28.039 -12.21,-37.6757 l 20.47,-24.4258 h -22.53"
         style="fill:#231f20;fill-opacity:1;fill-rule:nonzero;stroke:none"
         id="path221" /><path
         d="m 1158.97,142.09 h -27.52 v -38.36 h 27.52 c 12.38,0 20.81,7.055 20.81,19.09 0,12.047 -8.43,19.27 -20.81,19.27 z m 21.5,-105.7931 -25.8,51.6054 h -23.22 V 36.2969 h -18.58 V 158.777 h 47.47 c 23.23,0 38.02,-14.964 38.02,-35.785 0,-17.543 -10.66,-28.7225 -24.43,-32.5037 l 28.22,-54.1914 h -21.68"
         style="fill:#231f20;fill-opacity:1;fill-rule:nonzero;stroke:none"
         id="path223" /><path
         d="m 1223.49,36.2969 v 87.2191 h 17.54 V 36.2969 Z m -0.52,104.4181 v 18.574 h 18.58 v -18.574 h -18.58"
         style="fill:#231f20;fill-opacity:1;fill-rule:nonzero;stroke:none"
         id="path225" /><path
         d="m 1297.11,35.2617 c -14.28,0 -26.32,2.4141 -36.64,12.5586 L 1272,59.3516 c 7.05,-7.2227 16.51,-9.1172 25.11,-9.1172 10.84,0 19.1,3.7851 19.1,12.0351 0,6.0196 -3.27,9.461 -11.7,10.3243 l -13.93,1.1992 c -16.52,1.5508 -25.8,8.7734 -25.8,24.0898 0,17.1992 14.62,26.6602 32.85,26.6602 13.25,0 24.25,-2.75 32.34,-9.805 l -11.01,-11.179 c -5.5,4.64 -13.25,6.363 -21.5,6.363 -10.67,0 -15.83,-4.473 -15.83,-11.1837 0,-6.0156 3.44,-9.1172 12.04,-9.9727 l 12.21,-1.0351 c 18.07,-1.5508 27.53,-9.461 27.53,-24.7657 0,-18.2343 -15.48,-27.7031 -36.3,-27.7031"
         style="fill:#231f20;fill-opacity:1;fill-rule:nonzero;stroke:none"
         id="path227" /><path
         d="M 1409.62,36.2969 1385.2,76.5508 1372.29,61.9297 V 36.2969 h -17.54 V 158.777 h 17.54 V 83.2617 l 33.89,40.2543 h 21.33 l -30.27,-34.2347 34.06,-52.9844 h -21.68"
         style="fill:#231f20;fill-opacity:1;fill-rule:nonzero;stroke:none"
         id="path229" /><path
         d="M 1492.37,36.2969 V 158.777 h 78.27 V 142.09 h -59.69 v -35.781 h 50.92 V 89.793 h -50.92 V 52.9844 h 59.69 V 36.2969 h -78.27"
         style="fill:#231f20;fill-opacity:1;fill-rule:nonzero;stroke:none"
         id="path231" /><path
         d="m 1647.2,36.2969 v 53.1523 c 0,13.5858 -7.74,19.4458 -17.55,19.4458 -9.8,0 -18.06,-6.028 -18.06,-19.4458 V 36.2969 h -17.54 v 87.2191 h 17.2 v -8.778 c 6.02,6.532 14.45,9.805 23.22,9.805 8.95,0 16.34,-2.922 21.5,-7.91 6.71,-6.543 8.77,-14.793 8.77,-24.6057 V 36.2969 h -17.54"
         style="fill:#231f20;fill-opacity:1;fill-rule:nonzero;stroke:none"
         id="path233" /><path
         d="m 1723.07,108.895 c -15.83,0 -17.89,-13.5981 -17.89,-27.352 0,-13.7696 2.06,-27.3516 17.89,-27.3516 15.83,0 17.72,13.582 17.72,27.3516 0,13.7539 -1.89,27.352 -17.72,27.352 z M 1721.01,0 c -13.25,0 -21.68,3.09766 -30.79,11.5313 l 11.18,11.1796 c 5.5,-5.1601 10.32,-7.7461 18.92,-7.7461 14.79,0 20.47,10.4961 20.47,22.1875 v 11.1915 c -6.37,-7.5782 -13.59,-9.9844 -22.54,-9.9844 -8.77,0 -15.99,2.9297 -20.81,7.7422 -8.43,8.4297 -9.8,20.6445 -9.8,35.4414 0,14.7929 1.37,27 9.8,35.43 4.82,4.82 12.21,7.57 20.98,7.57 9.29,0 16.35,-2.406 22.88,-10.324 v 9.297 h 17.03 V 36.8125 C 1758.33,15.4883 1744.23,0 1721.01,0"
         style="fill:#231f20;fill-opacity:1;fill-rule:nonzero;stroke:none"
         id="path235" /><path
         d="m 1786.21,36.2969 v 87.2191 h 17.54 V 36.2969 Z m -0.52,104.4181 v 18.574 h 18.58 v -18.574 h -18.58"
         style="fill:#231f20;fill-opacity:1;fill-rule:nonzero;stroke:none"
         id="path237" /><path
         d="m 1884.78,36.2969 v 53.1523 c 0,13.5858 -7.74,19.4458 -17.55,19.4458 -9.81,0 -18.06,-6.028 -18.06,-19.4458 V 36.2969 h -17.55 v 87.2191 h 17.21 v -8.778 c 6.02,6.532 14.45,9.805 23.22,9.805 8.94,0 16.34,-2.922 21.5,-7.91 6.71,-6.543 8.77,-14.793 8.77,-24.6057 V 36.2969 h -17.54"
         style="fill:#231f20;fill-opacity:1;fill-rule:nonzero;stroke:none"
         id="path239" /><path
         d="m 1979.05,98.9102 c -2.92,6.5388 -8.94,11.0118 -17.2,11.0118 -8.43,0 -14.45,-4.473 -17.37,-11.0118 -1.72,-3.7813 -2.07,-6.5313 -2.24,-11.8633 h 39.22 c -0.34,5.332 -0.69,8.082 -2.41,11.8633 z m -36.81,-24.0821 c 0,-15.1328 7.74,-24.4218 22.19,-24.4218 9.81,0 14.97,2.746 21.16,8.9453 l 11.18,-10.4961 c -8.94,-8.9453 -17.37,-13.5938 -32.68,-13.5938 -21.85,0 -39.22,11.5313 -39.22,44.7305 0,28.3788 14.62,44.5508 36.98,44.5508 23.39,0 36.98,-16.859 36.98,-42.3164 v -7.3985 h -56.59"
         style="fill:#231f20;fill-opacity:1;fill-rule:nonzero;stroke:none"
         id="path241" /><path
         d="m 2071.78,98.9102 c -2.93,6.5388 -8.95,11.0118 -17.2,11.0118 -8.44,0 -14.45,-4.473 -17.38,-11.0118 -1.72,-3.7813 -2.06,-6.5313 -2.24,-11.8633 h 39.23 c -0.35,5.332 -0.69,8.082 -2.41,11.8633 z m -36.82,-24.0821 c 0,-15.1328 7.75,-24.4218 22.19,-24.4218 9.81,0 14.97,2.746 21.17,8.9453 l 11.18,-10.4961 c -8.95,-8.9453 -17.38,-13.5938 -32.69,-13.5938 -21.85,0 -39.22,11.5313 -39.22,44.7305 0,28.3788 14.62,44.5508 36.99,44.5508 23.39,0 36.98,-16.859 36.98,-42.3164 v -7.3985 h -56.6"
         style="fill:#231f20;fill-opacity:1;fill-rule:nonzero;stroke:none"
         id="path243" /><path
         d="m 2162.78,103.035 c -3.95,3.965 -7.05,5.86 -13.07,5.86 -9.46,0 -17.38,-7.579 -17.38,-19.6137 V 36.2969 h -17.54 v 87.2191 h 17.2 v -9.469 c 4.47,6.195 13.42,10.496 23.22,10.496 8.43,0 14.8,-2.234 20.82,-8.254 l -13.25,-13.254"
         style="fill:#231f20;fill-opacity:1;fill-rule:nonzero;stroke:none"
         id="path245" /><path
         d="m 2190.31,36.2969 v 87.2191 h 17.55 V 36.2969 Z m -0.51,104.4181 v 18.574 h 18.57 v -18.574 h -18.57"
         style="fill:#231f20;fill-opacity:1;fill-rule:nonzero;stroke:none"
         id="path247" /><path
         d="m 2288.88,36.2969 v 53.1523 c 0,13.5858 -7.74,19.4458 -17.55,19.4458 -9.8,0 -18.06,-6.028 -18.06,-19.4458 V 36.2969 h -17.54 v 87.2191 h 17.2 v -8.778 c 6.02,6.532 14.45,9.805 23.22,9.805 8.95,0 16.34,-2.922 21.5,-7.91 6.71,-6.543 8.77,-14.793 8.77,-24.6057 V 36.2969 h -17.54"
         style="fill:#231f20;fill-opacity:1;fill-rule:nonzero;stroke:none"
         id="path249" /><path
         d="m 2364.75,108.895 c -15.83,0 -17.89,-13.5981 -17.89,-27.352 0,-13.7696 2.06,-27.3516 17.89,-27.3516 15.83,0 17.72,13.582 17.72,27.3516 0,13.7539 -1.89,27.352 -17.72,27.352 z M 2362.69,0 c -13.25,0 -21.68,3.09766 -30.8,11.5313 l 11.19,11.1796 c 5.5,-5.1601 10.32,-7.7461 18.92,-7.7461 14.79,0 20.47,10.4961 20.47,22.1875 v 11.1915 c -6.37,-7.5782 -13.59,-9.9844 -22.54,-9.9844 -8.77,0 -15.99,2.9297 -20.81,7.7422 -8.43,8.4297 -9.8,20.6445 -9.8,35.4414 0,14.7929 1.37,27 9.8,35.43 4.82,4.82 12.21,7.57 20.98,7.57 9.29,0 16.35,-2.406 22.88,-10.324 v 9.297 h 17.03 V 36.8125 C 2400.01,15.4883 2385.91,0 2362.69,0"
         style="fill:#231f20;fill-opacity:1;fill-rule:nonzero;stroke:none"
         id="path251" /><path
         d="M 1086.02,781.641 H 971.805 V 617.73 h 114.215 c 53.19,0 88.06,34.004 88.06,81.961 0,47.946 -34.87,81.95 -88.06,81.95 z M 1180.18,268.98 1058.99,516.598 H 971.805 V 268.98 H 850.613 v 620.778 h 243.257 c 126.42,0 201.41,-86.32 201.41,-190.067 0,-87.187 -53.19,-141.25 -113.35,-163.046 L 1320.56,268.98 h -140.38"
         style="fill:#231f20;fill-opacity:1;fill-rule:nonzero;stroke:none"
         id="path253" /><path
         d="M 1656.26,781.641 H 1542.04 V 617.73 h 114.22 c 53.18,0 88.05,34.004 88.05,81.961 0,47.946 -34.87,81.95 -88.05,81.95 z m 94.16,-512.661 -121.19,247.618 h -87.19 V 268.98 h -121.19 v 620.778 h 243.25 c 126.42,0 201.41,-86.32 201.41,-190.067 0,-87.187 -53.19,-141.25 -113.35,-163.046 L 1890.79,268.98 h -140.37"
         style="fill:#231f20;fill-opacity:1;fill-rule:nonzero;stroke:none"
         id="path255" /><path
         d="m 1991.08,268.98 v 620.778 h 408.91 V 781.641 H 2112.27 V 636.043 h 245 V 527.934 h -245 v -150.84 h 287.72 V 268.98 h -408.91"
         style="fill:#231f20;fill-opacity:1;fill-rule:nonzero;stroke:none"
         id="path257" /></g></g></svg>
