<?xml version="1.0" encoding="UTF-8"?>
<svg width="406.4mm" height="270.93mm" version="1.1" viewBox="0 0 406.4 270.93" preserveAspectRatio="none" xml:space="preserve" xmlns="http://www.w3.org/2000/svg"><defs><clipPath id="clipPath1"><rect x="-64.823" y="-3.7042" width="406.4" height="270.93" fill="#f00" stroke-width=".52916"/></clipPath><clipPath id="clipPath2"><rect x="-64.823" y="-3.7042" width="406.4" height="270.93" fill="#f00" stroke-width=".52916"/></clipPath><clipPath id="clipPath3"><rect x="-64.823" y="-3.7042" width="406.4" height="270.93" fill="#f00" stroke-width=".52916"/></clipPath><clipPath id="clipPath4"><rect x="-64.823" y="-3.7042" width="406.4" height="270.93" fill="#f00" stroke-width=".52916"/></clipPath><clipPath id="clipPath5"><rect x="-64.823" y="-3.7042" width="406.4" height="270.93" fill="#f00" stroke-width=".52916"/></clipPath><clipPath id="clipPath6"><rect x="-64.823" y="-3.7042" width="406.4" height="270.93" fill="#f00" stroke-width=".52916"/></clipPath><clipPath id="clipPath7"><rect x="-64.823" y="-3.7042" width="406.4" height="270.93" fill="#f00" stroke-width=".52916"/></clipPath><clipPath id="clipPath8"><rect x="-64.823" y="-3.7042" width="406.4" height="270.93" fill="#f00" stroke-width=".52916"/></clipPath><clipPath id="clipPath9"><rect x="-64.823" y="-3.7042" width="406.4" height="270.93" fill="#f00" stroke-width=".52916"/></clipPath><clipPath id="clipPath10"><rect x="-64.823" y="-3.7042" width="406.4" height="270.93" fill="#f00" stroke-width=".52916"/></clipPath><clipPath id="clipPath11"><rect x="-64.823" y="-3.7042" width="406.4" height="270.93" fill="#f00" stroke-width=".52916"/></clipPath><clipPath id="clipPath12"><rect x="-64.823" y="-3.7042" width="406.4" height="270.93" fill="#f00" stroke-width=".52916"/></clipPath><clipPath id="clipPath13"><rect x="-64.823" y="-3.7042" width="406.4" height="270.93" fill="#f00" stroke-width=".52916"/></clipPath><clipPath id="clipPath15"><rect x="-64.823" y="-3.7042" width="406.4" height="270.93" fill="#f00" stroke-width=".52916"/></clipPath><clipPath id="clipPath16"><rect x="-64.823" y="-3.7042" width="406.4" height="270.93" fill="#f00" stroke-width=".52916"/></clipPath></defs><g transform="translate(64.823 3.7042)" stroke-width=".52917"><rect x="-77.242" y="-18.034" width="432.29" height="164.79" clip-path="url(#clipPath16)" fill="#c1d0e1"/><path d="m-99.772 63.697s6.6906-9.3993 45.646-9.4992c77.264-0.19828 148.34 52.956 205.8 52.257 56.12-0.6826 134.98-39.762 187.4-40.261 40.442-0.38516 35.947 9.9853 35.947 9.9853l-1.997 66.402h-466.31z" clip-path="url(#clipPath15)" fill="#d3dfeb"/><path d="m-96.511 107.42s11.551-3.8798 39.229-4.2116c60.101-0.72039 143.34 38.672 226.8 39.439 55.199 0.50739 127.67-29.946 172.68-30.644 41.643-0.64576 49.868 8.636 49.868 8.636l0.82619 85.925-490.35-0.4131z" clip-path="url(#clipPath13)" fill="#e1e8f1"/><path d="m-26.686 169.62s28.603-15.462 72.851-15.401c59.984 0.082 95.177 22.661 119.55 22.735 19.001 0.0578 19.872-5.5545 44.651-5.1314 25.431 0.4342 86.865 12.222 86.865 12.222l-0.24445 34.959-323.19 3.9115z" clip-path="url(#clipPath12)" fill="#e5d6c8"/><path d="m375.83 148.31s-9.961-1.3688-34.097-0.23679c-61.622 2.8901-109.91 37.189-139.35 38.833-26.989 1.5064-26.16 35.281-26.16 35.281l181.85 6.1564z" clip-path="url(#clipPath11)" fill="#e3cebb"/><path d="m-83.754 128.81c27.807-8.195 55.702 5.1662 81.197 15.013 18.131 9.0547 37.395 15.125 56.711 21.061 34.971 14.096 73.345 20.756 110.88 15.253 39.983-1.241 78.929 10.365 118.35 15.329 10.779-0.10885 20.277 0.0759 16.932 12.824 0.11602 34.807 0.23205 69.614 0.34807 104.42-133.42-1.9317-266.84-3.8634-400.25-5.7952 5.2801-59.368 10.56-118.74 15.84-178.11z" clip-path="url(#clipPath10)" fill="#e2ccb8"/><path d="m368.99 174.17c-24.674 3.746-49.194 8.4703-73.901 11.976-20.354 2.2588-40.629 5.3475-60.504 10.363-9.1724 2.1398-18.327 4.3559-27.467 6.6297 0.9398 10.081 1.8796 20.163 2.8194 30.244 61.599-0.85436 123.2-1.7087 184.8-2.5631-8.5816-18.883-17.163-37.767-25.745-56.65z" clip-path="url(#clipPath9)" fill="#d1bba1"/><path d="m-85.379 160.74s12.526-4.1563 38.542-4.4966c26.999-0.35315 46.295 8.7478 81.628 22.033 16.784 6.3106 73.133 16.008 93.378 15.713 23.844-0.34765 45.672-2.844 61.707-2.7367 53.316 0.35691 115.95 10.599 144.21 10.599s49.141 1.2847 49.141 1.2847l-10.92 101.82-468.93 8.0296z" clip-path="url(#clipPath8)" fill="#d6bfa6"/><path d="m-81.19 181.14s9.3392-3.5942 36.917-3.435c52.155 0.30123 81.631 21.651 116.53 20.258 14.803-0.59112 25.434 3.2548 42.097 3.3161 8.961 0.0329 27.5-3.1155 45.815-2.9848 35.409 0.25272 52.661 9.2652 82.637 9.3202 15.306 0.0281 21.769-0.84305 21.769-0.84305l5.4236 109.05-360.9-1.4987z" clip-path="url(#clipPath7)" fill="#8b9f70"/><path d="m-79.422 198.77s4.6493-3.8606 26.422-4.2275c25.087-0.42275 49.967 12.818 71.319 12.83 24.67 0.013 53.142-9.7313 68.415-9.4223 20.61 0.41695 33.317 7.3289 74.372 10.315 13.583 0.98792 28.668 0.98571 50.293 0.9201 28.377-0.0861 76.399-13.332 126.78-12.779 28.163 0.30914 44.221 2.1433 44.221 2.1433l-13.898 99.17-455.73 9.9346z" clip-path="url(#clipPath6)" fill="#768c5f"/><path d="m-74.649 208.47s7.3999-0.36393 22.806-0.48524 65.507 3.0328 89.041 2.6688c23.534-0.36393 44.725 1.8169 79.989 1.4496 35.263-0.36733-7.3465 89.628-7.3465 89.628l-193.95 3.3059z" clip-path="url(#clipPath5)" fill="#adb694"/><path d="m-77.85 214.83s18.004 1.7402 45.961 1.9029c44.068 0.2564 82.495-7.2055 129.43-6.6422 29.132 0.34965 62.374 0.21474 117.31-0.25445 29.204-0.24942 88.751 3.5958 107.1 3.6951 26.616 0.14406 42.608-0.71225 42.608-0.71225l-0.66728 82.073-446.06 3.3363z" clip-path="url(#clipPath4)" fill="#c0c6b7"/><path d="m366.83 235.86s-42.138-13.536-94.049-13.752c-53.235-0.22182-120.64 18.12-168.8 19.298-30.146 0.73703-57.006-3.7708-57.006-3.7708l-1.5527 56.784 315.64-1.1091z" clip-path="url(#clipPath3)" fill="#a6b28e"/><path d="m-67.571 234.34s21.564-5.1051 45.453-5.2852c54.696-0.41241 123.55 19.749 176.14 18.382 76.603-1.9909 102.61-23.965 179.23-25.358 29.619-0.53861 24.1 2.9597 24.1 2.9597l-2.3255 62.999-432.54 2.9597z" clip-path="url(#clipPath2)" fill="#9ead89"/><path d="m-65.01 244.33s23.379-1.7738 46.355-2.6168c37.739-1.3847 118.1 16.162 177.12 15.759 58.056-0.39655 103.28-13.802 141.25-13.861 37.43-0.0583 49.88 2.9096 49.88 2.9096l-2.0783 35.331-423.15 2.9096z" clip-path="url(#clipPath1)" fill="#6f8864"/></g></svg>
