<?xml version="1.0" encoding="UTF-8"?>
<svg width="194.83mm" height="198.72mm" version="1.1" viewBox="0 0 194.83 198.72" xml:space="preserve" xmlns="http://www.w3.org/2000/svg"><g transform="translate(-73.573 -87.932)"><ellipse cx="158.37" cy="281.36" rx="84.503" ry="5.2964" fill="#879e97" fill-opacity=".7028"/><g stroke-width=".52917"><path d="m203.2 283.09-40.572 0.0537 0.45916-57.22 10.6-4.3361 22.469 25.862z" fill="#e5e1db"/><path d="m140.62 283.21 5.9289-31.639 16.545-25.649-0.45916 57.22z" fill="#d3d6d1"/><path d="m146.54 251.57 16.545-25.649 10.6-4.3362 22.469 25.862-4.161-20.213-10.231-15.13-15.934 1.2018-15.46 16.837z" fill="#a2aead"/></g><g transform="translate(-1.5875 -2.6458)"><path d="m217.28 174.4-5.628 5.4777c-0.63711 0.6201-1.7251 0.68371-2.4336 0.14656-1.1833-0.89718-2.885-2.1728-3.7486-2.7521-0.87478-0.58672-1.8451-1.7494-2.8354-0.60759-1.8308 2.1109-2.5316-4.8607-2.5316-4.8607l1.2107-3.447z" fill="#bcbab2"/><path d="m177.8 156.69 59.732-59.171a3.4042 3.4042 179.67 0 1 4.7632-0.0277l15.194 14.705-57.77 60.254z" fill="#8dab89"/><path transform="translate(5.6431 5.5204)" d="m183.64 146.73 52.441-52.035a2.6605 2.6605 0.063603 0 1 3.7521 0.0042l23.753 23.675a2.6172 2.6172 90.217 0 1-0.0141 3.7213l-53.053 52.083a2.6426 2.6426 0.56408 0 1-3.7393-0.0368l-23.167-23.657a2.6633 2.6633 90.411 0 1 0.0269-3.754z" display="none" fill="#f6f2ec"/></g><g transform="rotate(90 174.07 184.85)"><path d="m217.28 174.4-5.628 5.4777c-0.63711 0.6201-1.7251 0.68371-2.4336 0.14656-1.1833-0.89718-2.885-2.1728-3.7486-2.7521-0.87478-0.58672-1.8451-1.7494-2.8354-0.60759-1.8308 2.1109-2.5316-4.8607-2.5316-4.8607l1.2107-3.447z" fill="#bcbab2"/><path d="m177.8 156.69 59.732-59.171a3.4042 3.4042 179.67 0 1 4.7632-0.0277l15.194 14.705-57.77 60.254z" fill="#8fabc0"/><path transform="translate(5.6431 5.5204)" d="m183.64 146.73 52.441-52.035a2.6605 2.6605 0.063603 0 1 3.7521 0.0042l23.753 23.675a2.6172 2.6172 90.217 0 1-0.0141 3.7213l-53.053 52.083a2.6426 2.6426 0.56408 0 1-3.7393-0.0368l-23.167-23.657a2.6633 2.6633 90.411 0 1 0.0269-3.754z" display="none" fill="#f6f2ec"/></g><g transform="rotate(180 171.78 185.76)"><path d="m217.28 174.4-5.628 5.4777c-0.63711 0.6201-1.7251 0.68371-2.4336 0.14656-1.1833-0.89718-2.885-2.1728-3.7486-2.7521-0.87478-0.58672-1.8451-1.7494-2.8354-0.60759-1.8308 2.1109-2.5316-4.8607-2.5316-4.8607l1.2107-3.447z" fill="#bcbab2"/><path d="m177.8 156.69 59.732-59.171a3.4042 3.4042 179.67 0 1 4.7632-0.0277l15.194 14.705-57.77 60.254z" fill="#c0ba8a"/><path transform="translate(5.6431 5.5204)" d="m183.64 146.73 52.441-52.035a2.6605 2.6605 0.063603 0 1 3.7521 0.0042l23.753 23.675a2.6172 2.6172 90.217 0 1-0.0141 3.7213l-53.053 52.083a2.6426 2.6426 0.56408 0 1-3.7393-0.0368l-23.167-23.657a2.6633 2.6633 90.411 0 1 0.0269-3.754z" display="none" fill="#f6f2ec"/></g><g transform="rotate(-90 170.39 187.54)"><path d="m217.28 174.4-5.628 5.4777c-0.63711 0.6201-1.7251 0.68371-2.4336 0.14656-1.1833-0.89718-2.885-2.1728-3.7486-2.7521-0.87478-0.58672-1.8451-1.7494-2.8354-0.60759-1.8308 2.1109-2.5316-4.8607-2.5316-4.8607l1.2107-3.447z" fill="#bcbab2"/><path d="m177.8 156.69 59.732-59.171a3.4042 3.4042 179.67 0 1 4.7632-0.0277l15.194 14.705-57.77 60.254z" fill="#d7bba5"/><path transform="translate(5.6431 5.5204)" d="m183.64 146.73 52.441-52.035a2.6605 2.6605 0.063603 0 1 3.7521 0.0042l23.753 23.675a2.6172 2.6172 90.217 0 1-0.0141 3.7213l-53.053 52.083a2.6426 2.6426 0.56408 0 1-3.7393-0.0368l-23.167-23.657a2.6633 2.6633 90.411 0 1 0.0269-3.754z" display="none" fill="#f6f2ec"/></g><ellipse cx="170.87" cy="183.94" rx="30.317" ry="30.418" fill="#fff" stroke="#5d747f" stroke-width="2.729"/></g></svg>
