<svg version="1.1" viewBox="0 0 94.256 103.68" xml:space="preserve" xmlns="http://www.w3.org/2000/svg">
<g transform="matrix(1.3333 0 0 -1.3333 0 133.06)">
    <g transform="scale(.1)">
        <path d="m425.2 597.14c0-117.42-95.183-212.6-212.6-212.6-117.41 0-212.6 95.183-212.6 212.6 0 117.41 95.184 212.6 212.6 212.6 117.41 0 212.6-95.183 212.6-212.6" fill="#3d7693"/>
        <path d="m605.86 604.35c-35.226 25.894-78.726 41.195-125.8 41.195-20.344 0-40.032-2.863-58.661-8.199-14.382 75.14-68.316 136.23-139.3 160.78 6.59 111.48 99.086 199.85 212.22 199.85 117.41 0 212.6-95.184 212.6-212.6 0-76.512-40.414-143.58-101.06-181.03" fill="#7095ac"/>
        <path d="m368.53 613.97c-52.644 38.699-86.804 101.06-86.804 171.41 0 4.277 0.125 8.527 0.375 12.746 70.988-24.547 124.92-85.637 139.3-160.78-18.828-5.391-36.578-13.313-52.875-23.375" fill="#3d7693"/>
        <path d="m480.06 220.35c-103.67 0-190.01 74.203-208.8 172.39 84.968 24.336 148.16 100.22 153.56 191.66 21.778-7.527 45.164-11.621 69.5-11.621 40.907 0 79.114 11.555 111.54 31.575 52.641-38.696 86.801-101.06 86.801-171.41 0-117.41-95.183-212.6-212.6-212.6" fill="#a9bcca"/>
        <path d="m271.26 392.74c-2.492 13.02-3.797 26.461-3.797 40.203 0 76.512 40.414 143.58 101.06 181.03 17.008-12.504 35.953-22.543 56.293-29.575-5.402-91.433-68.59-167.32-153.56-191.66" fill="#3d7693"/>
        <path d="m494.32 572.78c-24.336 0-47.722 4.094-69.5 11.621 0.25 4.215 0.375 8.469 0.375 12.747 0 13.746-1.304 27.183-3.793 40.203 18.629 5.336 38.317 8.199 58.661 8.199 47.07 0 90.57-15.301 125.8-41.195-32.425-20.02-70.632-31.575-111.54-31.575" fill="#5b87a1"/>
        <path d="m424.82 584.4c-20.34 7.032-39.285 17.071-56.293 29.575 16.297 10.062 34.047 17.984 52.875 23.375 2.489-13.02 3.793-26.457 3.793-40.203 0-4.278-0.125-8.532-0.375-12.747" fill="#3d7693"/>
        <path d="m283.65 597.66 164.55-98.894v200.81zm183.94-203.89-281.34 169.08-0.453 68.293 281.34 174.25 61.058-34.004v-343.34l-60.605-34.29" fill="#fff"/>
    </g>
</g>
</svg>
