<?xml version="1.0" encoding="UTF-8" standalone="no"?>
<!-- Created with Inkscape (http://www.inkscape.org/) -->

<svg
   width="406.39999mm"
   height="270.93332mm"
   viewBox="0 0 406.39999 270.93332"
   version="1.1"
   id="svg1"
   xml:space="preserve"
   sodipodi:docname="windmill-bg.svg"
   inkscape:version="1.4.3 (fcd0343856, 2026-01-01)"
   inkscape:export-filename="windmill-bg_.svg"
   inkscape:export-xdpi="96"
   inkscape:export-ydpi="96"
   xmlns:inkscape="http://www.inkscape.org/namespaces/inkscape"
   xmlns:sodipodi="http://sodipodi.sourceforge.net/DTD/sodipodi-0.dtd"
   xmlns="http://www.w3.org/2000/svg"
   xmlns:svg="http://www.w3.org/2000/svg"><sodipodi:namedview
     id="namedview1"
     pagecolor="#ffffff"
     bordercolor="#000000"
     borderopacity="0.25"
     inkscape:showpageshadow="2"
     inkscape:pageopacity="0.0"
     inkscape:pagecheckerboard="0"
     inkscape:deskcolor="#d1d1d1"
     inkscape:document-units="mm"
     inkscape:zoom="0.47857283"
     inkscape:cx="647.75929"
     inkscape:cy="456.56582"
     inkscape:window-width="1920"
     inkscape:window-height="1011"
     inkscape:window-x="0"
     inkscape:window-y="32"
     inkscape:window-maximized="1"
     inkscape:current-layer="layer1" /><defs
     id="defs1"><clipPath
       clipPathUnits="userSpaceOnUse"
       id="clipPath1"><rect
         style="fill:#ff0000;fill-opacity:1;stroke-width:0.529164"
         id="rect2"
         width="406.39999"
         height="270.93329"
         x="-64.822914"
         y="-3.7041595" /></clipPath><clipPath
       clipPathUnits="userSpaceOnUse"
       id="clipPath2"><rect
         style="fill:#ff0000;fill-opacity:1;stroke-width:0.529164"
         id="rect3"
         width="406.39999"
         height="270.93329"
         x="-64.822914"
         y="-3.7041595" /></clipPath><clipPath
       clipPathUnits="userSpaceOnUse"
       id="clipPath3"><rect
         style="fill:#ff0000;fill-opacity:1;stroke-width:0.529164"
         id="rect4"
         width="406.39999"
         height="270.93329"
         x="-64.822914"
         y="-3.7041595" /></clipPath><clipPath
       clipPathUnits="userSpaceOnUse"
       id="clipPath4"><rect
         style="fill:#ff0000;fill-opacity:1;stroke-width:0.529164"
         id="rect5"
         width="406.39999"
         height="270.93329"
         x="-64.822914"
         y="-3.7041595" /></clipPath><clipPath
       clipPathUnits="userSpaceOnUse"
       id="clipPath5"><rect
         style="fill:#ff0000;fill-opacity:1;stroke-width:0.529164"
         id="rect6"
         width="406.39999"
         height="270.93329"
         x="-64.822914"
         y="-3.7041595" /></clipPath><clipPath
       clipPathUnits="userSpaceOnUse"
       id="clipPath6"><rect
         style="fill:#ff0000;fill-opacity:1;stroke-width:0.529164"
         id="rect7"
         width="406.39999"
         height="270.93329"
         x="-64.822914"
         y="-3.7041595" /></clipPath><clipPath
       clipPathUnits="userSpaceOnUse"
       id="clipPath7"><rect
         style="fill:#ff0000;fill-opacity:1;stroke-width:0.529164"
         id="rect8"
         width="406.39999"
         height="270.93329"
         x="-64.822914"
         y="-3.7041595" /></clipPath><clipPath
       clipPathUnits="userSpaceOnUse"
       id="clipPath8"><rect
         style="fill:#ff0000;fill-opacity:1;stroke-width:0.529164"
         id="rect9"
         width="406.39999"
         height="270.93329"
         x="-64.822914"
         y="-3.7041595" /></clipPath><clipPath
       clipPathUnits="userSpaceOnUse"
       id="clipPath9"><rect
         style="fill:#ff0000;fill-opacity:1;stroke-width:0.529164"
         id="rect10"
         width="406.39999"
         height="270.93329"
         x="-64.822914"
         y="-3.7041595" /></clipPath><clipPath
       clipPathUnits="userSpaceOnUse"
       id="clipPath10"><rect
         style="fill:#ff0000;fill-opacity:1;stroke-width:0.529164"
         id="rect11"
         width="406.39999"
         height="270.93329"
         x="-64.822914"
         y="-3.7041595" /></clipPath><clipPath
       clipPathUnits="userSpaceOnUse"
       id="clipPath11"><rect
         style="fill:#ff0000;fill-opacity:1;stroke-width:0.529164"
         id="rect12"
         width="406.39999"
         height="270.93329"
         x="-64.822914"
         y="-3.7041595" /></clipPath><clipPath
       clipPathUnits="userSpaceOnUse"
       id="clipPath12"><rect
         style="fill:#ff0000;fill-opacity:1;stroke-width:0.529164"
         id="rect13"
         width="406.39999"
         height="270.93329"
         x="-64.822914"
         y="-3.7041595" /></clipPath><clipPath
       clipPathUnits="userSpaceOnUse"
       id="clipPath13"><rect
         style="fill:#ff0000;fill-opacity:1;stroke-width:0.529164"
         id="rect15"
         width="406.39999"
         height="270.93329"
         x="-64.822914"
         y="-3.7041595" /></clipPath><clipPath
       clipPathUnits="userSpaceOnUse"
       id="clipPath15"><rect
         style="fill:#ff0000;fill-opacity:1;stroke-width:0.529164"
         id="rect16"
         width="406.39999"
         height="270.93329"
         x="-64.822914"
         y="-3.7041595" /></clipPath><clipPath
       clipPathUnits="userSpaceOnUse"
       id="clipPath16"><rect
         style="fill:#ff0000;fill-opacity:1;stroke-width:0.529164"
         id="rect17"
         width="406.39999"
         height="270.93329"
         x="-64.822914"
         y="-3.7041595" /></clipPath></defs><g
     inkscape:label="Layer 1"
     inkscape:groupmode="layer"
     id="layer1"
     transform="translate(64.822914,3.7041595)"><rect
       style="fill:#c1d0e1;fill-opacity:1;stroke-width:0.529167"
       id="rect14"
       width="432.28558"
       height="164.79396"
       x="-77.242172"
       y="-18.034069"
       clip-path="url(#clipPath16)" /><path
       style="fill:#d3dfeb;fill-opacity:1;stroke-width:0.529167"
       d="m -99.77152,63.696724 c 0,0 6.690634,-9.399281 45.64604,-9.499249 77.263856,-0.198276 148.343007,52.955855 205.80473,52.256915 56.11955,-0.6826 134.98096,-39.76207 187.40387,-40.261335 40.44178,-0.385159 35.94714,9.985316 35.94714,9.985316 l -1.99705,66.402349 H -93.281066 Z"
       id="path14"
       sodipodi:nodetypes="cssscccc"
       clip-path="url(#clipPath15)" /><path
       style="fill:#e1e8f1;fill-opacity:1;stroke-width:0.529167"
       d="m -96.510801,107.41966 c 0,0 11.550717,-3.87982 39.229491,-4.21158 60.1012022,-0.72039 143.340804,38.67175 226.79978,39.43891 55.19871,0.50739 127.67051,-29.94615 172.6792,-30.64411 41.64255,-0.64576 49.8677,8.63597 49.8677,8.63597 l 0.82619,85.92474 -490.349351,-0.4131 z"
       id="path13"
       sodipodi:nodetypes="cssscccc"
       clip-path="url(#clipPath13)" /><path
       style="fill:#e5d6c8;fill-opacity:1;stroke-width:0.529167"
       d="m -26.686034,169.62307 c 0,0 28.6027004,-15.46193 72.851218,-15.40143 59.984396,0.082 95.177146,22.66052 119.551576,22.73465 19.00131,0.0578 19.87236,-5.55448 44.65073,-5.13143 25.43128,0.4342 86.86548,12.22177 86.86548,12.22177 l -0.24445,34.95881 -323.18562,3.91147 z"
       id="path12"
       sodipodi:nodetypes="cssscccc"
       clip-path="url(#clipPath12)" /><path
       style="fill:#e3cebb;fill-opacity:1;stroke-width:0.529167"
       d="m 375.83274,148.31139 c 0,0 -9.96104,-1.36879 -34.09694,-0.23679 -61.62152,2.89012 -109.9104,37.1893 -139.35273,38.83263 -26.98879,1.50638 -26.15953,35.28087 -26.15953,35.28087 l 181.85036,6.15639 z"
       id="path11"
       sodipodi:nodetypes="cssccc"
       clip-path="url(#clipPath11)" /><path
       style="fill:#e2ccb8;fill-opacity:1;stroke-width:0.529167"
       d="m -83.753837,128.8123 c 27.807179,-8.19496 55.7016,5.16618 81.1972688,15.01316 18.1306332,9.0547 37.3945192,15.12451 56.7109942,21.0609 34.970539,14.09563 73.345214,20.75554 110.879204,15.25277 39.9827,-1.24097 78.92932,10.36461 118.34588,15.32899 10.77918,-0.10885 20.27665,0.0759 16.93222,12.82421 0.11602,34.80679 0.23205,69.61357 0.34807,104.42036 -133.41793,-1.93172 -266.835865,-3.86345 -400.253797,-5.79517 5.280053,-59.36841 10.560107,-118.73681 15.84016,-178.10522 z"
       id="path9"
       clip-path="url(#clipPath10)" /><path
       style="fill:#d1bba1;fill-opacity:1;stroke-width:0.529167"
       d="m 368.99141,174.16716 c -24.6737,3.74605 -49.19353,8.4703 -73.90104,11.97572 -20.35429,2.25884 -40.62884,5.3475 -60.50408,10.36339 -9.1724,2.13982 -18.32693,4.35594 -27.46702,6.62967 0.9398,10.08143 1.8796,20.16285 2.8194,30.24428 61.59922,-0.85436 123.19843,-1.70871 184.79765,-2.56307 -8.58164,-18.88333 -17.16327,-37.76666 -25.74491,-56.64999 z"
       id="path10"
       clip-path="url(#clipPath9)" /><path
       style="fill:#d6bfa6;fill-opacity:1;stroke-width:0.529167"
       d="m -85.378712,160.74222 c 0,0 12.526432,-4.15629 38.542121,-4.49658 26.998554,-0.35315 46.29487539,8.74784 81.628176,22.0329 16.783911,6.31063 73.132645,16.00804 93.377765,15.71286 23.84367,-0.34765 45.67174,-2.844 61.70692,-2.73666 53.31638,0.35691 115.94756,10.59908 144.21178,10.59908 28.26422,0 49.14119,1.28474 49.14119,1.28474 l -10.92028,101.81543 -468.929123,8.0296 z"
       id="path8"
       sodipodi:nodetypes="cssssscccc"
       clip-path="url(#clipPath8)" /><path
       style="fill:#8b9f70;fill-opacity:1;stroke-width:0.529167"
       d="m -81.189798,181.14317 c 0,0 9.339205,-3.59424 36.917071,-3.43497 52.1554934,0.30123 81.630507,21.65095 116.525963,20.25751 14.80317,-0.59112 25.433881,3.25484 42.097244,3.31607 8.96095,0.0329 27.50006,-3.11547 45.81453,-2.98476 35.4093,0.25272 52.66051,9.26524 82.63662,9.32025 15.30557,0.0281 21.76898,-0.84305 21.76898,-0.84305 l 5.42356,109.05161 -360.895047,-1.49874 z"
       id="path7"
       sodipodi:nodetypes="cssssscccc"
       clip-path="url(#clipPath7)" /><path
       style="fill:#768c5f;fill-opacity:1;stroke-width:0.529167"
       d="m -79.421561,198.76853 c 0,0 4.649254,-3.86061 26.421972,-4.22751 25.087263,-0.42275 49.9672903,12.81832 71.318527,12.82961 24.669887,0.013 53.141631,-9.73129 68.414578,-9.4223 20.609774,0.41695 33.316864,7.32894 74.371504,10.31497 13.5829,0.98792 28.6676,0.98571 50.29306,0.9201 28.37676,-0.0861 76.39885,-13.33199 126.77658,-12.77901 28.16339,0.30914 44.22082,2.14333 44.22082,2.14333 l -13.89805,99.16997 -455.726176,9.93465 z"
       id="path6"
       sodipodi:nodetypes="csssssscccc"
       clip-path="url(#clipPath6)" /><path
       style="fill:#adb694;fill-opacity:1;stroke-width:0.529167"
       d="m -74.649016,208.46685 c 0,0 7.399904,-0.36393 22.806261,-0.48524 15.406357,-0.12131 65.507343,3.03275 89.041464,2.66882 23.534118,-0.36393 44.725229,1.81693 79.988551,1.44961 35.26333,-0.36733 -7.34652,89.62762 -7.34652,89.62762 l -193.948284,3.30592 z"
       id="path5"
       clip-path="url(#clipPath5)" /><path
       style="fill:#c0c6b7;fill-opacity:1;stroke-width:0.529167"
       d="m -77.850207,214.83234 c 0,0 18.004102,1.7402 45.961459,1.90286 44.068285,0.2564 82.495172,-7.20552 129.430482,-6.64219 29.132226,0.34965 62.373966,0.21474 117.309526,-0.25445 29.20418,-0.24942 88.75128,3.59578 107.09782,3.69508 26.61577,0.14406 42.60828,-0.71225 42.60828,-0.71225 l -0.66728,82.07267 -446.061692,3.33629 z"
       id="path4"
       sodipodi:nodetypes="csssscccc"
       clip-path="url(#clipPath4)" /><path
       style="fill:#a6b28e;fill-opacity:1;stroke-width:0.529167"
       d="m 366.82778,235.85533 c 0,0 -42.13759,-13.53619 -94.04927,-13.75249 -53.23545,-0.22182 -120.64372,18.12047 -168.80071,19.29784 -30.14609,0.73703 -57.006288,-3.77084 -57.006288,-3.77084 l -1.552701,56.78448 315.641819,-1.10909 z"
       id="path3"
       sodipodi:nodetypes="csscccc"
       clip-path="url(#clipPath3)" /><path
       style="fill:#9ead89;fill-opacity:1;stroke-width:0.529167"
       d="m -67.571208,234.34037 c 0,0 21.564215,-5.10506 45.452551,-5.28518 54.695907,-0.41241 123.551607,19.74887 176.144457,18.38201 76.60283,-1.99086 102.60942,-23.96512 179.23109,-25.35845 29.61927,-0.53861 24.10042,2.9597 24.10042,2.9597 l -2.32548,62.99935 -432.539177,2.95971 z"
       id="path2"
       sodipodi:nodetypes="cssscccc"
       clip-path="url(#clipPath2)" /><path
       style="fill:#6f8864;fill-opacity:1;stroke-width:0.529167"
       d="m -65.009831,244.33462 c 0,0 23.379318,-1.77385 46.355401,-2.61684 37.739444,-1.38466 118.097906,16.16182 177.11839,15.75869 58.05636,-0.39655 103.28037,-13.80188 141.24982,-13.86098 37.43043,-0.0583 49.87959,2.90965 49.87959,2.90965 l -2.0783,35.33139 -423.145229,2.90962 z"
       id="path1"
       sodipodi:nodetypes="cssscccc"
       clip-path="url(#clipPath1)" /></g></svg>
